<?xml version="1.0" encoding="UTF-8"?>
<svg id="Ebene_1" xmlns="http://www.w3.org/2000/svg" xmlns:xlink="http://www.w3.org/1999/xlink" version="1.1" viewBox="0 0 226.8 67.2">
  <!-- Generator: Adobe Illustrator 29.3.1, SVG Export Plug-In . SVG Version: 2.1.0 Build 151)  -->
  <defs>
    <style>
      .st0 {
        fill: url(#Unbenannter_Verlauf);
      }

      .st1 {
        fill: url(#Unbenannter_Verlauf_2);
      }

      .st2 {
        fill: url(#Unbenannter_Verlauf_4);
      }

      .st3 {
        fill: url(#Unbenannter_Verlauf_3);
      }

      .st4 {
        fill: url(#Unbenannter_Verlauf_5);
      }

      .st5 {
        fill: #fff;
      }

      .st6 {
        display: none;
      }
    </style>
    <linearGradient id="Unbenannter_Verlauf" data-name="Unbenannter Verlauf" x1="125" y1="-680.1" x2="154.9" y2="-680.1" gradientTransform="translate(0 -650.7) scale(1 -1)" gradientUnits="userSpaceOnUse">
      <stop offset="0" stop-color="#f9d02a"/>
      <stop offset="1" stop-color="#c0258d"/>
    </linearGradient>
    <linearGradient id="Unbenannter_Verlauf_2" data-name="Unbenannter Verlauf 2" x1="122.5" y1="-680.5" x2="84.9" y2="-680.3" gradientTransform="translate(0 -650.7) scale(1 -1)" gradientUnits="userSpaceOnUse">
      <stop offset="0" stop-color="#f2c93e"/>
      <stop offset="1" stop-color="#78b928"/>
    </linearGradient>
    <linearGradient id="Unbenannter_Verlauf_3" data-name="Unbenannter Verlauf 3" x1="196.5" y1="-680.5" x2="230.8" y2="-680.5" gradientTransform="translate(0 -650.7) scale(1 -1)" gradientUnits="userSpaceOnUse">
      <stop offset=".3" stop-color="#244da0"/>
      <stop offset="1" stop-color="#00ce64"/>
    </linearGradient>
    <linearGradient id="Unbenannter_Verlauf_4" data-name="Unbenannter Verlauf 4" x1="154" y1="-680.2" x2="188.3" y2="-680.2" gradientTransform="translate(0 -650.7) scale(1 -1)" gradientUnits="userSpaceOnUse">
      <stop offset="0" stop-color="#c926be"/>
      <stop offset=".8" stop-color="#244da0"/>
    </linearGradient>
    <linearGradient id="Unbenannter_Verlauf_5" data-name="Unbenannter Verlauf 5" x1="173.7" y1="-680.4" x2="211.2" y2="-680.4" gradientTransform="translate(0 -650.7) scale(1 -1)" gradientUnits="userSpaceOnUse">
      <stop offset="0" stop-color="#e1a51b"/>
      <stop offset="1" stop-color="#e22d36"/>
    </linearGradient>
  </defs>
  <g id="Ebene_11" data-name="Ebene_1">
    <g class="st6">
      <path class="st0" d="M152.8,38.5h-7.8c-1.3,0-2.4-.2-3.4-.7s-1.9-1.1-2.6-1.9c-.7-.8-1.3-1.8-1.7-2.9s-.6-2.2-.6-3.5.2-2.4.6-3.5c.4-1.1,1-2,1.7-2.9.7-.8,1.6-1.5,2.5-2,1-.5,2.1-.7,3.3-.7h7.9l2-9.7h-10c-2.7,0-5.3.4-7.7,1.3-2.4.9-4.5,2.1-6.3,3.7s-3.2,3.6-4.2,5.9-1.5,4.9-1.5,7.8.5,5.5,1.5,7.8,2.4,4.3,4.2,5.9c1.8,1.6,3.9,2.9,6.3,3.7,2.4.8,5,1.3,7.8,1.3h10.2l-2.2-9.6Z"/>
      <path class="st1" d="M123.4,29.5c0,2.9-.5,5.6-1.6,8s-2.5,4.4-4.3,6c-1.8,1.7-3.9,2.9-6.3,3.9-2.4.9-5,1.4-7.7,1.4s-5.2-.5-7.7-1.4c-2.4-.9-4.5-2.2-6.3-3.9s-3.2-3.7-4.3-6c-1.1-2.4-1.6-5-1.6-8s.5-5.6,1.6-7.9c1.1-2.4,2.5-4.3,4.3-6,1.8-1.6,3.9-2.9,6.3-3.7,2.4-.9,5-1.3,7.7-1.3s5.3.4,7.7,1.3c2.4.9,4.5,2.1,6.3,3.7s3.3,3.6,4.3,6c1.1,2.3,1.6,5,1.6,7.9ZM112.1,29.5c0-1.2-.2-2.3-.6-3.4s-.9-2.1-1.7-2.9c-.7-.8-1.6-1.5-2.7-2.1-1.1-.5-2.3-.8-3.7-.8s-2.6.3-3.7.8-1.9,1.2-2.6,2.1c-.7.8-1.2,1.8-1.6,2.9s-.5,2.2-.5,3.4.2,2.3.5,3.4c.4,1.1.9,2.1,1.6,3s1.6,1.6,2.7,2.1,2.3.8,3.7.8,2.6-.3,3.7-.8,1.9-1.2,2.7-2.1c.7-.9,1.3-1.9,1.6-3,.4-1.1.6-2.3.6-3.4Z"/>
      <path class="st3" d="M229.2,21.5c-1.1-2.4-2.5-4.3-4.3-6-1.8-1.6-3.9-2.9-6.3-3.7-1.4-.5-2.9-.9-4.5-1.1v.4l-2,9.3c.9.1,1.7.3,2.4.7,1.1.5,1.9,1.2,2.7,2.1.7.8,1.3,1.8,1.7,2.9s.6,2.2.6,3.4-.2,2.3-.5,3.4c-.4,1.1-.9,2.1-1.6,3-.7.9-1.6,1.6-2.7,2.1-1.1.5-2.3.8-3.7.8s-2.6-.3-3.7-.8c-1.1-.5-1.9-1.2-2.7-2.1l-3.7-4.6c-.2,2.2-.7,5.2-1.8,7.6-.7,1.6-1.6,3-2.6,4.3.1,0,.2.2.3.3,1.8,1.7,3.9,2.9,6.3,3.9,2.4.9,5,1.4,7.7,1.4s5.3-.5,7.7-1.4,4.5-2.2,6.3-3.9,3.3-3.7,4.3-6c1.1-2.4,1.6-5,1.6-8s-.4-5.6-1.5-8Z"/>
      <path class="st2" d="M170.8,48.1l1.9-9.5c-.9,0-1.7-.3-2.4-.7-1.1-.5-1.9-1.2-2.7-2.1-.7-.9-1.3-1.9-1.6-3-.4-1.1-.5-2.2-.5-3.4s.2-2.3.5-3.4c.4-1.1.9-2.1,1.6-2.9.7-.8,1.6-1.5,2.6-2.1,1.1-.5,2.3-.8,3.7-.8s2.6.3,3.7.8c1.1.5,1.9,1.2,2.7,2.1l3.7,4.6c.3-3,.9-5.2,1.8-7.5.7-1.5,1.5-3,2.5-4.3-.1-.1-.3-.3-.4-.4-1.8-1.6-3.9-2.9-6.3-3.7-2.4-.9-5-1.3-7.7-1.3s-5.2.4-7.7,1.3c-2.4.9-4.5,2.1-6.3,3.7s-3.2,3.6-4.3,6-1.6,5-1.6,7.9.5,5.6,1.6,8,2.5,4.4,4.3,6c1.8,1.7,3.9,2.9,6.3,3.9,1.4.5,2.9.9,4.5,1.1v-.3h0Z"/>
      <path class="st4" d="M206.4,10.5c-2.1,0-5.1.4-7.5,1.3-2.4.8-4.4,2.2-6.2,3.8s-3.2,3.6-4.2,5.9c-.9,2.2-1.4,4.2-1.7,7.3-.1,1.2-.2,3.2-.6,4.3-.4,1.1-.9,2-1.6,2.9-.7.9-1.5,1.6-2.6,2.1-1,.5-2.2.8-3.6.8h-2.9l-2,9.9h4.8c2.7,0,5.2-.4,7.5-1.3,2.4-.9,4.4-2.2,6.2-3.8s3.2-3.6,4.2-5.9c1-2.3,1.5-5.6,1.7-8.4.1-1.1.2-2.2.5-3.3.4-1.1.9-2,1.6-2.9.7-.8,1.5-1.5,2.6-2,1-.5,2.3-.8,3.6-.8h2.8l2-9.8c.2-.1-3.4-.1-4.6,0Z"/>
    </g>
    <g>
      <path class="st5" d="M152.8,38.5h-7.8c-1.3,0-2.4-.2-3.4-.7s-1.9-1.1-2.6-1.9-1.3-1.8-1.7-2.9-.6-2.2-.6-3.5.2-2.4.6-3.5,1-2,1.7-2.9c.7-.8,1.6-1.5,2.5-2,1-.5,2.1-.7,3.3-.7h7.9l2-9.7h-10c-2.7,0-5.3.4-7.7,1.3-2.4.9-4.5,2.1-6.3,3.7s-3.2,3.6-4.2,5.9-1.5,4.9-1.5,7.8.5,5.5,1.5,7.8,2.4,4.3,4.2,5.9,3.9,2.9,6.3,3.7,5,1.3,7.8,1.3h10.2l-2.2-9.6Z"/>
      <path class="st5" d="M123.5,29.5c0,2.9-.5,5.6-1.6,8s-2.5,4.4-4.3,6c-1.8,1.7-3.9,2.9-6.3,3.9-2.4.9-5,1.4-7.7,1.4s-5.2-.5-7.7-1.4c-2.4-.9-4.5-2.2-6.3-3.9s-3.2-3.7-4.3-6c-1.1-2.4-1.6-5-1.6-8s.5-5.6,1.6-7.9c1.1-2.4,2.5-4.3,4.3-6,1.8-1.6,3.9-2.9,6.3-3.7,2.4-.9,5-1.3,7.7-1.3s5.3.4,7.7,1.3,4.5,2.1,6.3,3.7,3.3,3.6,4.3,6c1,2.3,1.6,5,1.6,7.9ZM112.1,29.5c0-1.2-.2-2.3-.6-3.4s-.9-2.1-1.7-2.9c-.7-.8-1.6-1.5-2.7-2.1-1.1-.5-2.3-.8-3.7-.8s-2.6.3-3.7.8-1.9,1.2-2.6,2.1c-.7.8-1.2,1.8-1.6,2.9s-.5,2.2-.5,3.4.2,2.3.5,3.4c.4,1.1.9,2.1,1.6,3s1.6,1.6,2.7,2.1,2.3.8,3.7.8,2.6-.3,3.7-.8,1.9-1.2,2.7-2.1c.7-.9,1.3-1.9,1.6-3,.4-1.1.6-2.3.6-3.4Z"/>
      <path class="st5" d="M224.3,21.6c-1.1-2.4-2.5-4.3-4.3-6-1.8-1.6-3.9-2.9-6.3-3.7-.4-.2-.9-.3-1.3-.4l-2.9,9.6h.2c1.1.5,1.9,1.2,2.7,2.1.7.8,1.3,1.8,1.7,2.9s.6,2.2.6,3.4-.2,2.3-.5,3.4c-.4,1.1-.9,2.1-1.6,3s-1.6,1.6-2.7,2.1-2.3.8-3.7.8-2.6-.3-3.7-.8c-.3,0-.5-.3-.8-.4-1.3-.8-3-2.3-4.6-5-1.1,3-2.4,5.7-4,8-.5.8-1.1,1.6-1.7,2.3.2.2.4.4.6.6,1.8,1.7,3.9,2.9,6.3,3.9,2.4.9,5,1.4,7.7,1.4s5.3-.5,7.7-1.4,4.5-2.2,6.3-3.9,3.3-3.7,4.3-6c1.1-2.4,1.6-5,1.6-8s-.5-5.6-1.6-7.9h0Z"/>
      <path class="st5" d="M167.6,47.8l2.9-9.7s-.1,0-.2,0c-1.1-.5-1.9-1.2-2.7-2.1-.7-.9-1.3-1.9-1.6-3s-.5-2.2-.5-3.4.2-2.3.5-3.4.9-2.1,1.6-2.9,1.6-1.5,2.6-2.1c1.1-.5,2.3-.8,3.7-.8s2.6.3,3.7.8c.8.4,1.4.8,2,1.4,1,1,2.4,2.5,3.5,4.9,0-.2.2-.4.2-.7.8-2.4,1.7-4.7,2.7-6.6.8-1.4,1.6-2.7,2.6-3.9-.6-.6-1.1-1-1.6-1.4-1.6-1.3-3.4-2.3-5.4-3-2.4-.9-5-1.3-7.7-1.3s-5.2.4-7.7,1.3-4.5,2.1-6.3,3.7-3.2,3.6-4.3,6-1.6,5-1.6,7.9.5,5.6,1.6,8,2.5,4.4,4.3,6c1.8,1.7,3.9,2.9,6.3,3.9.4.2.9.3,1.3.5h0Z"/>
      <path class="st5" d="M205.9,10.6c-2.7,0-5.2.4-7.7,1.3s-4.5,2.1-6.3,3.7h0c-1.9,1.7-4.6,5.1-6.7,11.7-2,6.4-5,9-6.9,10.3-.2,0-.5.3-.7.4-1.1.5-2.3.8-3.7.8s-1.1,0-1.5,0l-2.9,9.6c1.4.3,2.9.4,4.4.4,2.7,0,5.3-.5,7.7-1.4,2-.8,3.8-1.8,5.4-3.1h.1c2.3-1.9,5.9-5.9,8.3-13.6,1.3-4.3,3.3-6.7,4.7-8h0c.6-.5,1.2-1,2-1.4,1.1-.5,2.3-.8,3.7-.8s1.1,0,1.6.1l2.9-9.5c-1.4-.3-2.9-.4-4.5-.4h0Z"/>
    </g>
    <path class="st5" d="M52.6,11.8C30.3,4.7,4.9,21.9,10.5,47.2l.6,2.3s0,0,0,0c0,0,0,.2,0,.3,0-.2-.1-.4-.2-.6-1.8-4.1-2.8-8.5-2.8-13.3C8.2,17.5,23,2.7,41.3,2.7s3.5.1,5.3.4c-4-1.7-8.3-2.6-12.9-2.6C15.4.5.5,15.4.5,33.7s13.4,31.7,30.5,33.1c-9.6-3.8-16.4-11.1-16.4-19.4,0-14.7,14.3-22.2,26.2-21.1,6.7.6,11.7,5.4,11.3,9.5-.3,4.1-3.3,6.7-7.1,8.5,2.3-1.4,4-3.4,4.1-6.1.2-3-3.7-6.8-9.3-7.6,2.7,1.6,4.6,4.2,4.8,6.2.5,7.5-11.2,9.8-16.4,10.7,0,0,0,0,0,0,0,0,0,0,0,0,0,0,0,0,0,0,0,0,0,0,0,0,3.3.9,6.2,1.2,9.1,1.4,15.6,1,26.3-5.6,28.4-15.1,1.5-7.2-.3-17.8-13.2-21.9Z"/>
  </g>
</svg>