<svg xmlns="http://www.w3.org/2000/svg" version="1.1" xmlns:xlink="http://www.w3.org/1999/xlink" xmlns:svgjs="http://svgjs.dev/svgjs" width="32" height="32"><svg id="SvgjsSvg1053" xmlns="http://www.w3.org/2000/svg" version="1.1" width="32" height="32" viewBox="0 0 32 32">
  <path id="SvgjsPath1052" d="M24.3,7C14.9,4,4.2,11.3,6.5,22l.2,1s0,0,0,0c0,0,0,0,0,.1,0,0,0-.2,0-.2-.7-1.7-1.2-3.6-1.2-5.6,0-7.7,6.3-14,14-14s1.5,0,2.2.2c-1.7-.7-3.5-1.1-5.4-1.1-7.7,0-14,6.3-14,14s5.7,13.4,12.9,14c-4.1-1.6-6.9-4.7-6.9-8.2,0-6.2,6-9.4,11-8.9,2.8.3,4.9,2.3,4.8,4-.1,1.7-1.4,2.8-3,3.6,1-.6,1.7-1.4,1.7-2.6,0-1.3-1.6-2.9-3.9-3.2,1.1.7,2,1.8,2,2.6.2,3.2-4.7,4.1-6.9,4.5,0,0,0,0,0,0,0,0,0,0,0,0,0,0,0,0,0,0,0,0,0,0,0,0,1.4.4,2.6.5,3.8.6,6.6.4,11.1-2.4,12-6.4.7-3-.1-7.5-5.5-9.2Z"></path>
</svg><style>@media (prefers-color-scheme: light) { :root { filter: none; } }
@media (prefers-color-scheme: dark) { :root { filter: none; } }
</style></svg>