<?xml version="1.0" encoding="UTF-8"?>
<svg width="24" height="24" viewBox="0 0 24 24" fill="none" xmlns="http://www.w3.org/2000/svg">
    <path d="M19 3H5C3.89543 3 3 3.89543 3 5V19C3 20.1046 3.89543 21 5 21H19C20.1046 21 21 20.1046 21 19V5C21 3.89543 20.1046 3 19 3Z" fill="#0077B5"/>
    <path d="M7 10H9V18H7V10Z" fill="white"/>
    <path d="M8 9C8.55228 9 9 8.55228 9 8C9 7.44772 8.55228 7 8 7C7.44772 7 7 7.44772 7 8C7 8.55228 7.44772 9 8 9Z" fill="white"/>
    <path d="M12 10H14V11.5H14.1C14.5 10.5 15.6 10 16.8 10C19.1 10 20 11.3 20 13.8V18H18V14.2C18 13.2 17.7 12.5 16.7 12.5C15.8 12.5 15 13.1 15 14.3V18H13V10Z" fill="white"/>
</svg> 