<?xml version="1.0" encoding="UTF-8"?>
<svg width="24" height="24" viewBox="0 0 24 24" fill="none" xmlns="http://www.w3.org/2000/svg">
    <path d="M23 5.5C22.1 5.9 21.2 6.2 20.2 6.3C21.2 5.7 22 4.8 22.4 3.7C21.5 4.3 20.5 4.7 19.4 4.9C18.5 4 17.3 3.5 16 3.5C13.7 3.5 11.8 5.4 11.8 7.7C11.8 8 11.8 8.3 11.9 8.6C8.2 8.4 4.9 6.6 2.6 3.9C2.3 4.4 2.1 5 2.1 5.7C2.1 6.9 2.8 8 3.8 8.7C3 8.7 2.2 8.5 1.5 8.1V8.2C1.5 10.2 3 11.8 4.9 12.2C4.6 12.3 4.3 12.3 4 12.3C3.8 12.3 3.5 12.3 3.3 12.2C3.8 13.8 5.3 14.9 7.1 14.9C5.7 15.9 3.9 16.5 2 16.5C1.7 16.5 1.4 16.5 1 16.5C2.8 17.6 5 18.2 7.3 18.2C16 18.2 20.7 12.4 20.7 7.3C20.7 7.1 20.7 6.9 20.7 6.7C21.6 6.1 22.4 5.3 23 5.5Z" fill="#1DA1F2"/>
</svg> 